<?xml version="1.0" encoding="UTF-8"?>
<svg xmlns="http://www.w3.org/2000/svg"
     viewBox="0 0 1600 1600"
     width="1600" height="1600">
  <defs>
    <!-- Accent line gradient -->
    <linearGradient id="ag" x1="0%" y1="0%" x2="100%" y2="0%">
      <stop offset="0%"   stop-color="#1D6FE5"/>
      <stop offset="100%" stop-color="#00C896"/>
    </linearGradient>
  </defs>

  <!-- Background fills the full original coordinate space -->
  <rect x="0" y="0" width="1600" height="1600" fill="#0F172A"/>

  <!-- AI shape — unchanged letterform, white -->
  <g transform="translate(0,1600) scale(0.100,-0.100)" stroke="none">
    <path fill="white" d="M1638 10854 c-10 -3 -20 -15 -22 -27 -3 -12 -10 -413 -16 -892 -6
-478 -15 -1072 -20 -1320 -15 -697 -33 -2532 -26 -2544 8 -13 1262 -16 1270
-3 3 5 8 326 12 715 7 707 7 707 28 712 12 2 454 6 983 8 l961 5 54 -57 c30
-31 81 -87 113 -125 33 -38 93 -106 134 -150 41 -45 147 -162 235 -261 197
-222 345 -387 546 -609 85 -94 169 -188 185 -208 l30 -38 1288 0 1287 0 -2
2383 -3 2382 -27 3 c-16 2 -28 -1 -28 -7 0 -14 -227 -15 -232 -1 -2 7 -267 12
-765 17 l-762 6 -6 -24 c-3 -13 -9 -871 -14 -1907 -5 -1036 -12 -1886 -15
-1889 -3 -3 -9 3 -13 13 -7 19 -48 68 -232 278 -184 209 -274 311 -300 341
-14 17 -57 66 -96 110 -38 44 -82 93 -96 110 -53 61 -422 479 -644 730 -34 39
-101 115 -150 170 -48 55 -113 127 -144 161 -31 33 -76 85 -101 115 -25 29
-90 103 -145 164 -76 83 -352 396 -460 522 -5 6 -36 40 -67 75 -32 34 -97 108
-145 163 -48 56 -209 237 -358 404 -148 167 -299 337 -334 377 -35 41 -73 76
-85 79 -39 9 -486 13 -480 4 3 -5 -5 -9 -18 -9 -18 0 -20 2 -8 10 10 6 -154 9
-470 8 -267 -1 -447 -5 -400 -8 l85 -6 -112 -2 c-65 -1 -113 2 -113 7 0 6 -8
10 -17 10 -10 0 -74 2 -143 5 -69 3 -133 3 -142 0z m665 -21 c-13 -2 -33 -2
-45 0 -13 2 -3 4 22 4 25 0 35 -2 23 -4z m170 0 c-7 -2 -19 -2 -25 0 -7 3 -2
5 12 5 14 0 19 -2 13 -5z m314 1 c-3 -3 -12 -4 -19 -1 -8 3 -5 6 6 6 11 1 17
-2 13 -5z m76 -1 c-13 -2 -33 -2 -45 0 -13 2 -3 4 22 4 25 0 35 -2 23 -4z
m5185 -20 c-21 -2 -55 -2 -75 0 -21 2 -4 4 37 4 41 0 58 -2 38 -4z m-4884
-1483 c115 -124 223 -239 240 -256 17 -17 67 -71 111 -120 44 -49 114 -125
156 -169 42 -44 118 -127 170 -185 52 -57 109 -119 127 -137 17 -18 32 -35 32
-38 0 -3 -260 -4 -577 -3 l-578 3 1 90 c0 50 1 328 3 620 l2 530 52 -55 c29
-30 147 -156 261 -280z"/>

    <!-- T -->
    <path fill="white" d="M9571 9187 c-16 -16 -15 -509 1 -525 9 -9 121 -12 441 -12 l429 0 -6
-922 c-10 -1609 -10 -1648 0 -1658 7 -7 137 -9 365 -8 l354 3 3 1286 2 1286
107 6 c58 4 263 7 454 7 307 0 349 2 364 16 14 14 16 47 13 264 -2 137 -6 252
-10 256 -5 4 -25 6 -45 4 -21 -1 -270 -1 -553 0 -283 1 -630 2 -770 2 -140 -1
-439 -2 -665 -2 -225 -1 -424 1 -441 3 -18 3 -37 0 -43 -6z"/>

    <!-- H -->
    <path fill="white" d="M12920 9188 c-25 -5 -158 -7 -297 -3 -163 3 -254 2 -258 -4 -9 -16
-23 -3073 -14 -3099 l9 -22 362 2 363 3 3 726 2 727 433 7 c237 3 522 5 632 3
l200 -3 0 -720 c0 -396 4 -726 8 -732 6 -10 90 -13 362 -13 l355 0 6 24 c3 14
2 716 -3 1561 -9 1707 -2 1561 -78 1550 -22 -3 -94 -6 -160 -5 -148 2 -121 2
-245 -5 -58 -4 -131 -3 -162 2 -39 7 -61 6 -68 -1 -7 -7 -10 -191 -10 -555 0
-301 -4 -552 -9 -559 -7 -12 -118 -14 -626 -13 -340 1 -623 5 -628 8 -7 4 -8
194 -4 552 4 317 3 552 -2 560 -11 17 -104 22 -171 9z m-405 -979 c2 -2 -30 -4 -72 -4 -45 0 -77 4 -77 10 0 9 138 3 149 -6z m-1121
-1 c-21 -2 -55 -2 -75 0 -21 2 -4 4 37 4 41 0 58 -2 38 -4z"/>
  </g>

  <!-- ² — clean SVG text replacing noisy potrace path -->
  <text x="916" y="600"
    font-family="'Arial Black', 'Helvetica Neue', Arial, sans-serif"
    font-weight="900"
    font-size="130"
    fill="white">2</text>

  <!-- Brand accent line — below all letters -->
  <rect x="164" y="1012" width="1328" height="7" fill="url(#ag)"/>
</svg>
